<svg xmlns="http://www.w3.org/2000/svg" width="150" height="150" viewBox="0 0 150 150" fill="none">
  <path d="M112.5 96.0938H117.188V91.4062H121.875V86.7188H117.188V82.0312H112.5V86.7188H107.812V91.4062H112.5V96.0938Z" fill="#1976D2"/>
  <path d="M112.5 105.469H126.562V110.156H112.5V105.469Z" fill="#1976D2"/>
  <path d="M112.5 114.844H133.594V119.531H112.5V114.844Z" fill="#1976D2"/>
  <path d="M112.5 124.219H133.594V128.906H112.5V124.219Z" fill="#1976D2"/>
  <path d="M112.5 133.594H133.594V138.281H112.5V133.594Z" fill="#1976D2"/>
  <path d="M100.528 132.37L97.7508 129.593L94.4368 132.907L99.1243 137.595C99.5637 138.034 100.16 138.281 100.781 138.281H100.948C101.283 138.257 101.609 138.16 101.904 137.999C102.199 137.837 102.455 137.613 102.656 137.344L109.688 127.969L105.938 125.156L100.528 132.37Z" fill="#1976D2"/>
  <path d="M9.375 7.03125H37.5V11.7188H9.375V7.03125Z" fill="#1976D2"/>
  <path d="M9.375 86.7188H35.1562V91.4062H9.375V86.7188Z" fill="#1976D2"/>
  <path d="M9.375 138.281H39.8438C40.2064 138.285 40.565 138.205 40.8914 138.047L58.5938 129.183V134.604C57.1438 135.595 55.9586 136.926 55.1415 138.48C54.3244 140.035 53.9003 141.766 53.9062 143.522V145.312C53.9062 145.934 54.1532 146.53 54.5927 146.97C55.0323 147.409 55.6284 147.656 56.25 147.656H140.625C141.247 147.656 141.843 147.409 142.282 146.97C142.722 146.53 142.969 145.934 142.969 145.312V86.7188C142.969 86.0972 142.722 85.5012 142.282 85.0617L130.563 73.343C130.124 72.9034 129.528 72.6564 128.906 72.6562H100.781V63.2812C100.771 60.0737 99.7208 56.9559 97.7895 54.395C95.8581 51.8341 93.149 49.9678 90.068 49.0758L85.4789 47.7656C87.3055 46.2402 88.7799 44.3372 89.8008 42.1875H92.5781C94.4388 42.1915 96.2453 41.5614 97.6998 40.4011C99.1544 39.2407 100.17 37.6193 100.58 35.8043C100.989 33.9892 100.768 32.0888 99.9524 30.4163C99.1369 28.7438 97.7759 27.3991 96.0938 26.6039V18.75C96.0938 16.2636 95.106 13.879 93.3479 12.1209C91.5897 10.3627 89.2052 9.375 86.7188 9.375H86.4234C85.9005 7.364 84.7257 5.58307 83.0828 4.31084C81.4399 3.0386 79.4216 2.34683 77.3438 2.34375H67.9688C64.2403 2.34747 60.6656 3.83025 58.0292 6.46667C55.3927 9.1031 53.91 12.6778 53.9062 16.4062V21.6422L45.7383 16.7414C45.3738 16.5222 44.9566 16.4064 44.5312 16.4062H9.375V21.0938H43.882L53.4656 26.843C51.8715 27.7163 50.6138 29.0961 49.8915 30.7641C49.1693 32.4322 49.0235 34.2934 49.4773 36.0535C49.9311 37.8137 50.9586 39.3724 52.3974 40.4833C53.8362 41.5942 55.6042 42.1938 57.4219 42.1875H60.1992C61.2201 44.3372 62.6945 46.2402 64.5211 47.7656L59.932 49.0758C56.851 49.9678 54.1419 51.8341 52.2105 54.395C50.2792 56.9559 49.2295 60.0737 49.2188 63.2812V89.7047L41.3555 96.0938H9.375V100.781H42.1875C42.7253 100.781 43.2467 100.595 43.6641 100.256L49.4039 95.5922C49.7757 97.9423 50.8541 100.124 52.4957 101.846C54.1372 103.568 56.2642 104.75 58.5938 105.234V123.945L39.2906 133.594H9.375V138.281ZM61.6172 138.281H72.6562V142.969H58.6172C58.707 142.005 59.0262 141.076 59.5481 140.261C60.07 139.445 60.7794 138.767 61.6172 138.281ZM77.3438 138.281H86.7188V142.969H77.3438V138.281ZM91.4062 142.969V77.3438H126.562V86.7188C126.562 87.3404 126.809 87.9365 127.249 88.376C127.689 88.8156 128.285 89.0625 128.906 89.0625H138.281V142.969H91.4062ZM131.25 80.6578L134.967 84.375H131.25V80.6578ZM70.3125 50.8711C73.3695 51.793 76.6305 51.793 79.6875 50.8711V51.5625C79.6875 52.8057 79.1936 53.998 78.3146 54.8771C77.4355 55.7561 76.2432 56.25 75 56.25C73.7568 56.25 72.5645 55.7561 71.6854 54.8771C70.8064 53.998 70.3125 52.8057 70.3125 51.5625V50.8711ZM92.5781 37.5H91.2187C91.337 36.7242 91.3997 35.941 91.4062 35.1562V30.4688H92.5781C93.5105 30.4688 94.4047 30.8391 95.064 31.4985C95.7234 32.1578 96.0938 33.052 96.0938 33.9844C96.0938 34.9168 95.7234 35.811 95.064 36.4703C94.4047 37.1296 93.5105 37.5 92.5781 37.5ZM58.5938 16.4062C58.5938 13.9198 59.5815 11.5353 61.3396 9.77712C63.0978 8.01897 65.4823 7.03125 67.9688 7.03125H77.3438C78.587 7.03125 79.7792 7.52511 80.6583 8.40419C81.5374 9.28326 82.0312 10.4755 82.0312 11.7188C82.0312 12.3404 82.2782 12.9365 82.7177 13.376C83.1573 13.8156 83.7534 14.0625 84.375 14.0625H86.7188C87.962 14.0625 89.1542 14.5564 90.0333 15.4354C90.9124 16.3145 91.4062 17.5068 91.4062 18.75V25.7812C91.4061 25.1597 91.1591 24.5637 90.7195 24.1242L83.6883 17.093C83.4432 16.8478 83.1467 16.66 82.8202 16.5433C82.4938 16.4265 82.1455 16.3836 81.8005 16.4177C81.4555 16.4518 81.1223 16.562 80.825 16.7403C80.5277 16.9187 80.2737 17.1608 80.0812 17.4492C78.8566 19.2913 77.1955 20.802 75.2458 21.8467C73.2961 22.8915 71.1183 23.438 68.9062 23.4375H60.9375C60.524 23.4415 60.1192 23.5562 59.7651 23.7697C59.411 23.9832 59.1207 24.2877 58.9242 24.6516L58.5938 24.4547V16.4062ZM57.4219 37.5C56.4895 37.5 55.5953 37.1296 54.936 36.4703C54.2766 35.811 53.9062 34.9168 53.9062 33.9844C53.9062 33.052 54.2766 32.1578 54.936 31.4985C55.5953 30.8391 56.4895 30.4688 57.4219 30.4688H58.5938V35.1562C58.6003 35.941 58.663 36.7242 58.7812 37.5H57.4219ZM63.2812 35.1562V32.7328L66.7617 34.8211L69.1758 30.8039L64.7109 28.125H68.9062C71.4151 28.1273 73.8969 27.6075 76.1941 26.5988C78.4912 25.5901 80.5532 24.1144 82.2492 22.2656L86.7188 26.7516V35.1562C86.7188 38.2643 85.4841 41.245 83.2864 43.4427C81.0887 45.6404 78.108 46.875 75 46.875C71.892 46.875 68.9113 45.6404 66.7136 43.4427C64.5159 41.245 63.2812 38.2643 63.2812 35.1562ZM61.2211 53.5828L65.7 52.3031C65.8749 54.65 66.9306 56.844 68.6554 58.4451C70.3802 60.0462 72.6466 60.9359 75 60.9359C77.3534 60.9359 79.6198 60.0462 81.3446 58.4451C83.0694 56.844 84.1251 54.65 84.3 52.3031L88.7789 53.5828C90.8827 54.1914 92.7327 55.4654 94.0514 57.2139C95.3702 58.9624 96.0868 61.0912 96.0938 63.2812V72.6562H91.4062V65.625H86.7188V91.4062H63.2812V84.3188L81.1641 69.7875L78.2109 66.15L63.2812 78.2812V65.625H58.5938V70.3125H53.9062V63.2812C53.9132 61.0912 54.6298 58.9624 55.9486 57.2139C57.2673 55.4654 59.1173 54.1914 61.2211 53.5828ZM53.9062 75H58.5938V82.0875L53.9062 85.8961V75ZM53.9062 93.75V91.9359L58.5938 88.125V100.348C57.2279 99.8648 56.0446 98.9718 55.2056 97.7909C54.3665 96.6099 53.9127 95.1986 53.9062 93.75ZM63.2812 96.0938H86.7188V133.594H77.3438V105.469H72.6562V133.594H63.2812V126.839L69.0164 123.984L66.9211 119.789L63.2812 121.598V96.0938Z" fill="#1976D2"/>
  <path d="M9.375 124.219H35.1562V128.906H9.375V124.219Z" fill="#1976D2"/>
  <path d="M100.528 113.62L97.7508 110.843L94.4368 114.157L99.1243 118.845C99.5637 119.284 100.16 119.531 100.781 119.531H100.948C101.283 119.507 101.609 119.41 101.904 119.249C102.199 119.087 102.455 118.863 102.656 118.594L109.688 109.219L105.938 106.406L100.528 113.62Z" fill="#1976D2"/>
</svg>